<svg id="Layer_1" data-name="Layer 1" xmlns="http://www.w3.org/2000/svg" viewBox="0 0 372 371.49"><defs><style>.cls-1{fill:#f7961e;}.cls-2{fill:#fff;}</style></defs><path class="cls-1" d="M191.09,379.22C91.25,380,5.8,297.82,6,193.73,6.24,90.21,87.66,13.11,180.89,8,292.41,2,378,90.52,378,193.52,378,297.12,293.36,380.68,191.09,379.22Zm12-175h8.44q53.27,0,106.53,0c4.54,0,8.12-1.42,10.46-5.44a10.33,10.33,0,0,0-.13-11.33c-2.66-4.36-6.84-5.35-11.6-5.34q-53.77.06-107.53,0h-6.17V161q0-47,0-94c0-6.92-4.63-11.78-10.9-11.85S181.25,60.08,181,66.84c0,1.33,0,2.66,0,4v111.3h-6.48q-53.76,0-107.52,0c-7.71,0-12.85,4.39-13,10.91-.13,6.71,5.06,11.14,13.09,11.14H181v6.4c0,36-.11,72,.17,108A19,19,0,0,0,185,329.35c2.69,3.45,7.17,3.86,11.42,1.95,4.63-2.08,6.64-5.77,6.64-10.73q0-31.76,0-63.51C203.08,239.74,203.07,222.41,203.07,204.2Z" transform="translate(-6.02 -7.75)"/><path class="cls-2" d="M203.07,204.2c0,18.21,0,35.54,0,52.86q0,31.76,0,63.51c0,5-2,8.65-6.64,10.73-4.25,1.91-8.73,1.5-11.42-1.95a19,19,0,0,1-3.87-10.75c-.28-36-.17-72-.17-108v-6.4H67.07c-8,0-13.22-4.43-13.09-11.14.14-6.52,5.28-10.9,13-10.91q53.76,0,107.52,0H181V70.84c0-1.34,0-2.67,0-4,.27-6.76,5.05-11.75,11.17-11.69S203,60.08,203.05,67q.07,47,0,94v21.14h6.17q53.76,0,107.53,0c4.76,0,8.94,1,11.6,5.34a10.33,10.33,0,0,1,.13,11.33c-2.34,4-5.92,5.45-10.46,5.44q-53.27-.07-106.53,0Z" transform="translate(-6.02 -7.75)"/></svg>